<?xml version="1.0"?>
<!DOCTYPE svg PUBLIC "-//W3C//DTD SVG 1.1//EN" "http://www.w3.org/Graphics/SVG/1.1/DTD/svg11.dtd">
<svg width="600" height="600" viewBox="-400 -400 800 800" version="1.1" xmlns="http://www.w3.org/2000/svg">
<path fill="transparent" stroke="black" d="M 316.175 -141.986 Q326.088 -127.625, 330.324 -120.552 Q342.844 -118.183, 348.236 -112.275 Q352.031 -105.159, 356.966 -94.4574 Q352.84 -79.0351, 354.202 -69.4112 Q357.177 -64.9798, 370.148 -53.5384 Q379.76 -52.7612, 384.412 -54.9676 Q383.001 -68.0816, 378.02 -77.7807 Q376.851 -89.0964, 376.178 -96.1228 Q379.871 -109.21, 373.142 -120.011 Q374.794 -131.179, 379.472 -139.193 Q376.876 -148.094, 378.059 -157.964 Q376.348 -167.158, 378.363 -175.42 Q379.768 -183.441, 382.921 -194.573 Q382.403 -207.064, 375.39 -219.151 Q374.691 -231.332, 369.239 -234.693 Q362.082 -229.036, 354.926 -223.379 Q353.076 -218.347, 353.171 -210.816 Q360.092 -200.775, 361.386 -196.462 Q360.179 -182.641, 356.899 -172.315 Q352.385 -163.266, 348.918 -158.624 Q357.27 -151.6, 354.512 -139.141 Q357.536 -140.406, 348.064 -140.89 Q338.592 -141.373, 336.031 -147.364 Q328.424 -154.044, 320.433 -159.366 Q311.001 -164.49, 296.919 -162.789 Q292.16 -157.826, 283.241 -153.9 Q279.084 -143.716, 272.894 -136.187 Q270.192 -128.495, 261.759 -119.763 Q256.352 -114.818, 248.534 -103.737 Q247.221 -97.4489, 234.69 -87.6012 Q227.238 -79.7225, 226.632 -70.8997 Q217.764 -62.107, 216.2 -51.84 Q215.247 -38.403, 216.171 -31.6332 Q210.905 -21.6626, 198.193 -29.2297 Q199.449 -37.3215, 199.083 -48.931 Q193.922 -63.5373, 196.484 -66.2349 Q207.321 -76.9233, 209.532 -80.089 Q212.443 -91.2947, 219.704 -99.7732 Q222.511 -109.251, 230.745 -121.77 Q235.923 -122.809, 246.948 -134.496 Q247.933 -142.61, 257.329 -151.877 Q259.948 -161.285, 267.288 -166.451 Q272.31 -175.865, 280.219 -183.699 Q279.43 -188.966, 293.287 -193.564 Q301.11 -185.416, 313.002 -187.478 Q322.634 -189.209, 323.537 -181.714 Q340.698 -182.341, 342.501 -190.315 Q342.442 -199.18, 335.486 -208.226 Q329.18 -213.242, 329.766 -219.241 Q329.892 -231.67, 337.356 -234.649 Q345.033 -243.455, 350.75 -250.581 Q363.055 -255.506, 371.134 -258.222 Q377.972 -270.426, 373.479 -282.946 Q363.128 -284.432, 353.287 -280.882 Q346.536 -273.79, 334.665 -271.187 Q324.205 -262.145, 316.362 -254.294 Q309.497 -239.97, 302.885 -231.693 Q305.18 -219.773, 305.556 -213.548 Q296.717 -212.941, 283.988 -218.425 Q275.565 -217.854, 258.938 -218.011 Q257.044 -208.319, 255.96 -196.565 Q255.075 -188.337, 247.704 -178.102 Q242.168 -168.325, 240.704 -162.974 Q230.73 -154.3, 225.026 -148.783 Q226.854 -141.919, 212.577 -137.375 Q210.034 -124.813, 204.581 -118.169 Q196.29 -110.451, 192.097 -101.432 Q187.064 -92.4358, 186.292 -83.2439 Q176.104 -77.2346, 173.733 -74.179 Q169.616 -82.4286, 165.499 -90.6781 Q166.9 -101.335, 173.814 -108.998 Q174.197 -118.539, 178.066 -127.742 Q181.061 -135.718, 172.727 -143.779 Q168.24 -159.132, 171.89 -165.726 Q163.877 -179.739, 160.711 -190.079 Q161.367 -194.849, 169.497 -200.389 Q177.628 -205.929, 179.696 -209.133 Q189.499 -221.447, 202.036 -214.791 Q209.624 -210.114, 206.465 -201.264 Q203.305 -192.414, 194.315 -189.488 Q186.403 -181.15, 185.477 -174.333 Q191.598 -169.561, 186.204 -162.383 Q199.575 -151.052, 195.169 -142.777 Q203.748 -146.47, 206.274 -155.567 Q208.801 -164.664, 211.862 -168.985 Q221.002 -181.884, 222.213 -191.609 Q229.654 -199.363, 236.449 -205.219 Q236.803 -218.404, 234.904 -225.681 Q245.205 -232.242, 254.119 -240.977 Q253.103 -252.637, 245.452 -261.837 Q232.845 -261.226, 223.775 -249.927 Q215.656 -240.218, 204.974 -238.192 Q189.886 -245.652, 183 -250.339 Q168.406 -248.513, 163.594 -243.777 Q154.099 -231.74, 154.075 -221.341 Q150.977 -214.605, 141.172 -212.406 Q137.186 -201.559, 135.975 -190.767 Q140.754 -181.286, 144.047 -175.908 Q145.889 -164.724, 147.106 -156.887 Q151.591 -145.113, 158.089 -136.715 Q155.974 -124.865, 147.141 -115.431 Q147.685 -106.159, 147.691 -95.7084 Q150.391 -91.2097, 148.484 -78.7036 Q153.398 -72.7239, 155.958 -64.0851 Q161.138 -53.9003, 172.244 -47.1954 Q174.991 -41.319, 173.519 -31.1002 Q173.061 -23.9303, 160.489 -26.1717 Q156.486 -30.864, 144.631 -37.4286 Q140.359 -43.4965, 136.055 -57.5235 Q128.844 -63.1182, 122.222 -68.2321 Q123.876 -81.5354, 124.874 -87.2416 Q128.919 -97.172, 123.199 -107.799 Q125.96 -114.793, 130.511 -124.804 Q128.988 -131.474, 132.571 -142.524 Q127.189 -150.964, 125.146 -159.615 Q114.149 -170.788, 116.167 -183.238 Q112.596 -194.016, 110.413 -207.701 Q112.84 -217.773, 122.43 -222.888 Q127.395 -234.091, 133.956 -240.162 Q139.009 -252.349, 146.995 -257.992 Q153.571 -265.624, 162.729 -270.473 Q172.621 -271.969, 178.34 -275.429 Q190.962 -274.238, 202.942 -268.961 Q214.811 -266.584, 224.779 -276.622 Q220.182 -290.873, 208.682 -296.61 Q198.736 -302.738, 187.023 -302.236 Q180.871 -302.97, 164.536 -300.4 Q160.018 -298.107, 146.502 -293.735 Q136.799 -285.467, 128.257 -275.232 Q123.01 -270.847, 114.538 -257.145 Q111.156 -252.297, 105.896 -240.405 Q95.9294 -234.495, 90.8631 -225.803 Q83.172 -220.121, 83.4706 -206.79 Q89.5295 -195.28, 87.2786 -185.591 Q94.2079 -174.034, 98.0257 -165.875 Q96.0908 -153.288, 102.904 -149.683 Q109.267 -139.746, 113.751 -132.635 Q107.38 -124.581, 96.2779 -118.519 Q89.3333 -128.994, 90.2307 -138.172 Q82.4398 -148.314, 75.9545 -151.705 Q68.0801 -163.683, 63.1169 -171.06 Q64.181 -181.54, 60.2101 -189.557 Q65.6849 -196.669, 55.9378 -204.536 Q56.9692 -217.342, 48.4678 -223.293 Q38.8332 -231.369, 44.1572 -243.914 Q56.781 -241.404, 70.1072 -236.72 Q80.8674 -248.997, 80.2976 -258.18 Q75.9053 -268.29, 61.7297 -265.967 Q53.5192 -268.371, 42.2152 -267.135 Q31.9065 -264.1, 23.298 -256.889 Q14.8242 -249.696, 14.3016 -235.047 Q13.983 -229.723, 17.0451 -218.355 Q23.5814 -207.63, 29.8457 -200.414 Q33.5471 -192.944, 33.643 -180.154 Q35.4153 -170.889, 43.8599 -160.256 Q48.0587 -152.648, 51.9505 -146.191 Q62.1854 -137.703, 66.8284 -133.88 Q68.5446 -124.874, 74.1737 -117.495 Q84.8348 -107.712, 90.0231 -103.501 Q98.817 -97.9847, 105.837 -94.2451 Q101.854 -88.8918, 111.254 -80.9478 Q101.644 -68.832, 98.3124 -62.8429 Q90.4225 -73.1286, 82.8891 -81.2145 Q77.3645 -87.9054, 72.6038 -90.2767 Q65.3399 -99.4238, 57.4991 -102.685 Q49.6327 -108.389, 46.7579 -119.383 Q40.1052 -122.392, 39.315 -133.15 Q27.7053 -139.284, 22.5334 -150.44 Q20.2565 -155.921, 5.45481 -146.456 Q-1.08436 -132.686, 5.57168 -130.654 Q13.0961 -125.902, 22.8142 -120.911 Q24.7727 -113.302, 31.0469 -107.208 Q30.6098 -99.2951, 37.8879 -94.3386 Q45.4088 -89.2822, 56.3438 -84.2192 Q61.9018 -76.8336, 67.7968 -69.0114 Q74.0929 -63.7439, 83.9551 -55.516 Q88.4333 -45.7191, 101.09 -42.4777 Q109.997 -40.8752, 122.772 -37.6909 Q124.699 -32.0427, 132.4 -27.3537 Q141.967 -20.1909, 142.836 -9.38614 Q153.813 -8.01032, 156.574 4.86322 Q153.496 12.9715, 157.335 20.4707 Q152.316 24.592, 143.134 29.3952 Q138.738 22.4486, 132.446 6.94035 Q129.004 -0.138414, 118.743 -6.25178 Q109.756 -16.1042, 98.4991 -16.9866 Q89.8072 -20.679, 82.31 -25.4028 Q73.6698 -37.967, 61.1594 -36.726 Q56.5962 -42.8179, 49.4147 -51.5973 Q43.3172 -58.211, 39.8398 -65.8035 Q32.2257 -68.1188, 21.2271 -72.2543 Q16.428 -79.6331, 15.2349 -88.9858 Q11.3335 -97.2116, 4.54355 -101.171 Q1.03735 -109.446, -11.4721 -111.334 Q-19.6123 -105.854, -22.245 -100.045 Q-15.0821 -94.4712, -7.91914 -88.897 Q-2.4514 -84.9872, -0.157634 -72.0142 Q2.34306 -64.7965, -3.41674 -56.6223 Q-8.97141 -48.0761, -9.91514 -41.3172 Q6.1338 -44.6107, 14.2531 -48.8614 Q29.024 -49.6566, 32.9738 -39.7255 Q40.1455 -35.6073, 49.5773 -30.606 Q51.5313 -26.2151, 61.6087 -14.2457 Q69.3117 -12.7484, 78.0091 -1.4781 Q78.1299 10.0422, 77.4504 21.728 Q82.2011 31.9476, 95.9493 26.3284 Q100.458 11.4791, 103.067 6.8725 Q115.627 10.9844, 116.406 23.1905 Q116.946 35.4688, 117.495 45.8642 Q115.116 54.7103, 108.502 54.9748 Q97.7621 55.2605, 90.5261 48.4013 Q80.0863 46.5572, 71.6336 50.9788 Q67.3921 55.0501, 58.8382 56.0646 Q49.0887 50.2068, 55.3939 36.3757 Q52.8048 27.7225, 52.4161 16.2234 Q49.3928 7.71997, 43.0824 3.45831 Q35.0799 -4.51345, 30.6884 -15.8565 Q19.6421 -18.9834, 9.50755 -21.5304 Q1.58079 -19.3407, -2.18157 -15.7987 Q4.70445 -7.55785, 13.6237 -0.642256 Q22.2722 4.98522, 26.6891 14.9592 Q33.9003 23.2339, 32.919 28.9075 Q34.6421 40.7911, 35.8319 47.6641 Q32.6234 56.703, 34.6943 66.3555 Q46.9774 66.3499, 58.2534 78.7392 Q60.4097 91.3994, 70.1587 99.2459 Q74.5284 84.0668, 77.0342 74.8516 Q86.4291 74.3625, 98.7723 78.0437 Q97.2713 89.7956, 95.8665 104.501 Q97.9709 111.144, 106.331 116.864 Q117.197 105.457, 116.763 96.6088 Q124.759 85.1795, 122.88 74.9505 Q130.803 63.2837, 137.421 56.1397 Q140.87 50.681, 151.476 47.3768 Q157.484 46.091, 165.028 40.1129 Q176.302 40.5548, 180.442 44.3191 Q180.231 59.295, 167.247 62.2771 Q159.348 69.0547, 150.931 74.794 Q150.095 84.5626, 143.454 89.2134 Q140.593 98.7558, 141.423 110.247 Q134.757 118.885, 131.387 126.699 Q123.834 131.756, 117.439 135.888 Q107.882 135.041, 100.349 136.135 Q88.5191 129.554, 77.9693 123.149 Q67.6537 120.65, 55.2553 120.614 Q49.7865 117.318, 43.6637 116.112 Q29.3359 120.3, 20.9513 120.263 Q14.9657 136.19, 28.7056 138.399 Q40.672 140.011, 49.236 143.454 Q58.7234 148.637, 69.388 150.417 Q80.1352 156.695, 82.3715 153.298 Q94.6271 161.625, 105.016 161.811 Q112.082 154.97, 118.984 164.031 Q116.671 176.763, 112.024 180.65 Q101.846 188.114, 93.8153 186.813 Q81.7712 184.871, 71.4322 180.642 Q57.8788 177.405, 49.1149 170.683 Q41.7751 167.275, 29.0289 162.297 Q21.9614 159.912, 14.9368 154.415 Q7.85361 155.158, -0.540494 160.301 Q3.55251 171.555, 9.25996 178.424 Q20.086 184.202, 25.5888 190.001 Q38.2593 196.731, 48.1599 198.128 Q57.4629 203.818, 69.7347 209.185 Q78.8869 211.892, 89.4488 210.08 Q101.417 207.307, 113.054 212.444 Q119.468 204.506, 128.126 200.993 Q130.988 191.534, 137.677 183.15 Q135.739 171.421, 139.304 164.287 Q138.155 151.299, 140.114 142.479 Q146.532 136.319, 153.841 132.696 Q157.057 123.077, 158.926 117.489 Q158.755 107.1, 164.149 102.163 Q171.106 91.5856, 176.133 89.9522 Q184.301 77.4103, 193.275 75.0839 Q193.832 60.6009, 197.981 50.7724 Q198.431 44.5552, 200.522 35.7308 Q195.286 35.2147, 189.078 25.1883 Q183.087 14.9732, 176.994 8.71396 Q171.639 4.59042, 174.369 -4.80864 Q183.155 -13.8869, 191.993 -8.91615 Q199.986 -1.8799, 204.25 5.87643 Q209.263 13.8845, 219.348 24.6762 Q226.289 34.4014, 224.634 44.5431 Q223.108 52.5873, 217.676 58.3184 Q213.16 66.0904, 214.046 76.0468 Q212.348 83.7365, 199.35 92.7409 Q191.955 96.9183, 191.323 107.226 Q179.599 114.34, 178.91 117.876 Q174.974 130.871, 177.59 141.098 Q172.623 152.261, 166.672 154.848 Q159.85 160.669, 156.422 169.121 Q156.714 177.102, 159.748 184.327 Q154.842 190.038, 152.626 204.841 Q150.507 213.724, 144.768 221.699 Q131.844 225.588, 124.577 231.077 Q113.934 236.221, 100.013 236.439 Q93.338 234.999, 83.0822 234.722 Q74.3579 235.678, 63.3832 238.692 Q54.3163 237.295, 46.8444 228.45 Q38.6756 224.584, 25.3892 218.909 Q20.0789 233.953, 20.631 245.1 Q29.4807 256.685, 40.467 255.938 Q50.1662 257.414, 56.885 264.111 Q68.2502 265.549, 80.3611 261.547 Q88.4467 260.017, 103.897 257.878 Q113.503 255.643, 125.307 253.234 Q138.15 253.1, 149.527 246.758 Q156.816 238.762, 168.804 230.555 Q174.733 221.822, 171.856 208.738 Q171.745 198.141, 173.432 187.051 Q177.084 183.232, 177.969 168.709 Q186.171 161.214, 190.478 161.176 Q199.622 169.681, 199.14 177.655 Q199.606 185.998, 198.518 200.73 Q200.348 206.686, 201.972 214.188 Q201.971 225.493, 211.713 236.498 Q221.152 235.974, 229.792 229.5 Q243.824 231.722, 246.941 242.29 Q259.539 243.11, 261.635 239.473 Q259.324 230.628, 257.014 221.782 Q253.14 214.275, 246.993 206.311 Q238.929 200.254, 226.449 202.268 Q216.093 201.118, 216.204 189.616 Q218.406 178.23, 218.563 169.618 Q215.874 165.263, 213.871 156.506 Q211.868 147.748, 206.578 138.659 Q199.601 127.82, 208.44 122.205 Q212.631 114.096, 223.281 127.973 Q227.145 120.859, 241.207 122.219 Q237.431 111.433, 235.067 100.959 Q228.976 94.9195, 231.738 84.9352 Q237.023 74.8473, 242.122 72.9192 Q238.237 56.5153, 246.731 51.0683 Q245.203 40.2517, 252.22 39.1347 Q259.106 26.4829, 268.644 26.7421 Q271.795 37.5512, 264.128 45.4594 Q264.27 59.1615, 264.862 70.0959 Q259.823 77.7484, 255.393 89.1616 Q259.988 99.7987, 262.144 107.15 Q262.139 116.592, 262.905 123.81 Q271.992 133.357, 276.861 140.133 Q277.576 151.54, 273.165 159.788 Q262.002 164.881, 256.131 149.389 Q248.465 146.743, 244.123 144.848 Q233.947 147.4, 233.124 156.078 Q237.093 162.935, 239.854 175.087 Q242.735 186.154, 256.585 186.524 Q262.381 186.636, 271.271 183.964 Q280.161 181.291, 283.488 186.25 Q283.465 199.305, 272.669 207.283 Q272.139 212.255, 275.556 222.145 Q283.235 228.315, 293.737 234.041 Q299.884 225.586, 298.594 210.743 Q302.55 197.037, 307.202 204.444 Q318.977 208.437, 322.184 192.806 Q318.072 181.879, 310.286 178.671 Q300.561 170.506, 294.873 162.31 Q294.726 154.345, 298.399 147.516 Q298.973 136.928, 302.248 128.417 Q311.084 125.448, 322.682 124.126 Q335.676 124.207, 341.277 122.601 Q349.303 125.917, 356.23 135.028 Q358.494 142.346, 356.692 154.362 Q352.282 159.806, 342.75 159.703 Q335.524 147.076, 326.227 138.575 Q319.619 147.994, 314.864 157.206 Q325.352 163.181, 331.299 172.427 Q338.333 176.145, 337.636 183.998 Q342.709 194.059, 337.186 205.988 Q336.329 218.059, 330.63 224.58 Q325.294 233.777, 316.151 238.645 Q319.744 249.754, 323.674 260.554 Q335.299 256.707, 346.106 251.724 Q354.746 243.885, 357.884 229.892 Q363.56 219.285, 364.634 205.187 Q361.968 199.479, 363.364 190.531 Q364.952 184.963, 372.368 175.374 Q377.091 172.077, 380.338 163.648 Q384.743 155.254, 382.196 146.694 Q382.425 136.478, 377.401 128.321 Q376.927 117.385, 376.272 112.933 Q367.399 111.138, 361.926 108.935 Q350.96 102.264, 342.014 97.717 Q337.823 99.1639, 327.594 97.0547 Q319.402 97.3304, 307.805 95.2591 Q303.572 101.678, 294.18 109.749 Q283.287 113.453, 273.177 114.033 Q276.761 103.868, 280.345 93.7031 Q281.344 86.0286, 287.607 71.5141 Q287.307 56.658, 284.039 43.7989 Q280.854 32.597, 282.663 18.9684 Q290.911 13.3316, 303.733 8.3817 Q304.455 18.1477, 305.177 27.9137 Q302.601 29.7267, 308.598 45.2457 Q305.458 57.9021, 308.035 65.7812 Q316.071 72.7034, 322.112 75.7731 Q330.504 72.0815, 332.64 59.6035 Q327.729 55.1764, 324.032 46.917 Q321.067 34.8088, 318.764 31.5309 Q321.694 20.4022, 323.925 8.83555 Q323.689 -2.95201, 327.136 -11.5851 Q335.367 -19.3907, 347.708 -21.3464 Q354.219 -20.0102, 358.942 -7.14426 Q357.661 -2.42423, 352.748 3.41469 Q340.123 9.00031, 338.955 16.6064 Q342.281 26.0984, 342.134 36.453 Q346.027 41.7659, 356.457 35.1519 Q356.119 30.4522, 364.034 15.8692 Q360.802 15.594, 371.774 23.9395 Q369.695 32.9529, 369.939 41.8758 Q361.994 50.6808, 356.459 60.5824 Q355.971 70.5901, 358.48 82.7941 Q360.533 86.2421, 370.175 84.488 Q379.818 82.7339, 376.625 79.1127 Q376.064 67.1793, 379.287 58.9461 Q385.357 51.5291, 383.693 48.0406 Q381.772 37.5187, 387.069 29.8534 Q384.866 23.5298, 379.703 10.7242 Q381.838 0.0308001, 381.644 -9.47253 Q377.646 -22.1191, 374.582 -30.8041 Q360.446 -32.9684, 352.514 -40.4749 Q339.975 -45.7828, 339.446 -40.3616 Q329.741 -36.9892, 329.55 -48.915 Q329.36 -60.8407, 332.52 -67.5743 Q317.875 -62.6763, 313.51 -50.5609 Q305.618 -40.1795, 307.329 -23.5166 Q306.517 -16.9887, 299.599 -9.89732 Q291.549 -9.03276, 284.563 -5.38551 Q272.606 -4.04076, 269.447 6.66026 Q257.105 10.1323, 253.709 9.93102 Q241.385 14.0699, 232.437 11.7088 Q226.705 5.84718, 229.304 -7.13113 Q233.676 -12.6296, 248.07 -10.0442 Q253.134 -8.23961, 261.033 -17.2101 Q271.657 -22.0153, 280.326 -25.9061 Q285.533 -32.5695, 289.89 -38.9912 Q290.235 -48.4772, 296.245 -58.1372 Q299.524 -58.7859, 301.674 -70.4374 Q308.119 -74.7281, 315.525 -81.5613 Q325.889 -84.5171, 325.882 -90.4084 Q329.62 -102.471, 321.191 -104.993 Q310.653 -105.839, 307.166 -98.433 Q302.177 -95.9283, 290.868 -89.1117 Q283.662 -79.2617, 272.574 -68.4901 Q272.277 -59.0463, 266.424 -51.8938 Q258.983 -42.5494, 254.641 -39.1417 Q245.429 -33.2945, 242.503 -35.5744 Q241.601 -48.8311, 244.826 -52.2715 Q249.647 -61.0094, 254.468 -69.7472 Q253.157 -73.8784, 256.257 -82.4172 Q262.697 -92.0669, 269.52 -93.834 Q278.067 -102.236, 280.869 -107.073 Q284.653 -114.952, 289.127 -120.133 Q293.635 -129.89, 299.895 -134.72 Q308.792 -142.706, 316.175 -141.986 Z"/>
<path fill="transparent" stroke="black" d="M -194.593 -109.647 L-182.223 -107.104 L-170.611 -104.599 L-166.46 -106.98 L-159.758 -105.555 L-147.302 -108.927 L-135.531 -115.798 L-127.786 -116.26 L-117.776 -116.463 L-110.114 -125.16 L-104.114 -128.006 L-110.24 -138.932 L-118.77 -142.376 L-127.299 -145.819 L-129.486 -138.624 L-139.27 -130.654 L-146.923 -130.235 L-154.163 -122.593 L-167.768 -121.718 L-173.436 -128.627 L-177.832 -130.457 L-189.088 -128.232 L-194.944 -126.808 L-207.021 -129.324 L-216.54 -135.473 L-214.083 -140.924 L-212.399 -154.945 L-204.498 -150.134 L-196.598 -145.322 L-189.588 -143.568 L-176.816 -144.551 L-162.849 -148.095 L-158.687 -146.369 L-144.161 -149.894 L-136.772 -163.132 L-129.91 -166.946 L-126.047 -174.563 L-118.328 -167.733 L-109.324 -160.08 L-104.543 -150.801 L-98.8571 -145.01 L-91.0773 -140.223 L-85.2462 -133.888 L-73.5821 -137.765 L-67.2021 -144.461 L-60.9399 -147.879 L-57.1228 -155.273 L-52.8777 -161.711 L-48.7501 -166.423 L-38.0517 -177.071 L-25.9414 -177.918 L-18.6594 -183.428 L-11.0661 -180.264 L-1.1732 -170.629 L5.88124 -169.745 L11.4965 -181.61 L12.5817 -187.593 L3.80176 -201.466 L-3.25882 -204.544 L-10.6996 -210.61 L-8.31522 -222.361 L-9.99403 -229.146 L-20.2761 -230.86 L-27.2871 -216.172 L-31.3029 -214.077 L-34.4235 -197.545 L-47.9026 -193.642 L-55.959 -191.361 L-57.3007 -203.402 L-55.3819 -208.813 L-51.0072 -223.759 L-46.4401 -228.945 L-42.5622 -236.302 L-34.0428 -244.842 L-25.701 -251.64 L-11.7103 -256.065 L-19.9117 -271.308 L-31.763 -273.495 L-42.865 -266.32 L-51.5754 -255.503 L-59.6623 -252.475 L-69.6373 -246.269 L-72.6353 -234.827 L-76.4228 -224.583 L-85.2296 -213.599 L-89.5641 -205.381 L-81.6184 -194.62 L-76.8162 -189.565 L-74.9105 -181.275 L-72.7236 -171.655 L-80.9286 -165.748 L-85.4086 -170.107 L-93.3954 -178.815 L-103.218 -185.274 L-109.476 -192.623 L-115.356 -201.56 L-127.754 -202.889 L-121.737 -209.211 L-126.957 -220.608 L-123.771 -223.288 L-112.091 -232.273 L-98.5758 -229.166 L-99.8059 -232.496 L-90.4739 -244.583 L-90.7967 -248.335 L-86.3911 -257.406 L-77.324 -266.243 L-69.0082 -273.899 L-66.0017 -280.885 L-58.9907 -291.356 L-64.3105 -298.423 L-79.007 -301.865 L-87.3791 -299.611 L-95.1646 -288.75 L-104.259 -279.353 L-112.291 -270.358 L-117.873 -258.236 L-116.377 -250.564 L-127.809 -244.098 L-135.845 -250.062 L-141.295 -242.4 L-142.368 -252.73 L-143.441 -263.06 L-142.129 -268.777 L-144.295 -277.292 L-135.246 -279.486 L-123.972 -288.92 L-125.996 -300.689 L-134.609 -304.68 L-143.921 -307.946 L-153.754 -302.656 L-163.479 -297.335 L-172.629 -291.624 L-174.244 -275.533 L-167.84 -267.467 L-164.145 -254.807 L-162.329 -250.073 L-162.816 -232.626 L-158.245 -230.785 L-148.916 -219.553 L-148.089 -212.772 L-142.77 -206.646 L-142.849 -194.055 L-145.144 -182.249 L-158.47 -186.209 L-164.558 -199.105 L-171.21 -202.832 L-177.232 -207.561 L-184.091 -218.415 L-183.748 -227.011 L-188.224 -238.991 L-192.763 -246.813 L-191.864 -260.69 L-196.015 -267.151 L-200.799 -273.975 L-207.79 -284.19 L-220.304 -279.968 L-227.968 -267.11 L-224.618 -267.378 L-220.646 -258.823 L-216.673 -250.268 L-209.104 -246.208 L-215.739 -239.391 L-212.311 -232.679 L-205.08 -225.445 L-204.819 -215.482 L-203.172 -205.799 L-196.699 -199.244 L-190.777 -194.72 L-186.993 -191.081 L-182.47 -184.755 L-176.991 -183.44 L-165.192 -176.679 L-158.805 -172.071 L-167.856 -161.521 L-181.048 -167.964 L-184.254 -165.748 L-197.119 -170.505 L-208.013 -174.761 L-213.038 -183.004 L-217.379 -188.411 L-228.603 -189.201 L-233.737 -194.059 L-243.573 -187.912 L-245.341 -178.542 L-235.63 -172.596 L-231.313 -162.017 L-232.915 -157.077 L-233.817 -145.611 L-239.178 -137.703 L-233.092 -121.453 L-225.652 -121.221 L-218.742 -106.547 L-212.179 -104.119 L-215.157 -90.298 L-210.081 -82.4147 L-203.861 -71.5875 L-200.043 -61.109 L-201.218 -49.9011 L-201.57 -39.9258 L-203.071 -30.6579 L-214.683 -34.3108 L-218.236 -36.9418 L-218.052 -46.1644 L-221.136 -60.2604 L-226.862 -64.1754 L-227.948 -78.5262 L-228.265 -86.239 L-237.676 -94.956 L-244.732 -100.09 L-249.337 -109.386 L-256.144 -118.504 L-260.298 -129.824 L-259.957 -139.853 L-257.647 -153.49 L-255.015 -160.601 L-264.269 -172.289 L-262.978 -185.34 L-263.58 -191.766 L-260.247 -203.839 L-264.416 -210.591 L-259.209 -223.006 L-254.238 -225.083 L-238.432 -222.257 L-235.857 -215.662 L-229.282 -217.894 L-223.133 -227.506 L-233.175 -232.545 L-240.434 -241.808 L-249.136 -249.242 L-254.487 -254.665 L-268.326 -257.362 L-275.145 -252.376 L-279.603 -236.433 L-280.115 -229.064 L-286.504 -219.194 L-290.811 -207.761 L-288.629 -195.132 L-285.15 -188.179 L-283.575 -178.291 L-287.962 -172.474 L-282.749 -162.328 L-278.927 -146.279 L-281.452 -137.541 L-291.684 -149.309 L-305.021 -157.528 L-310.205 -164.246 L-310.709 -174.682 L-313.378 -184.277 L-309.788 -195.423 L-312.743 -205.608 L-325.302 -211.582 L-336.971 -198.69 L-335.285 -193.926 L-331.257 -177.635 L-326.517 -159.912 L-325.812 -152.443 L-318.842 -145.614 L-313.522 -134.65 L-309.473 -131.396 L-295.905 -124.413 L-283.827 -119.825 L-276.716 -112.865 L-271.879 -103.177 L-264.714 -91.5475 L-253.473 -78.7378 L-254.979 -74.2092 L-244.794 -60.1943 L-244.085 -47.3903 L-240.273 -44.1566 L-239.742 -30.1137 L-241.674 -23.1116 L-243.305 -16.2203 L-252.735 -26.5592 L-258.802 -38.7658 L-262.357 -47.3016 L-266.775 -57.3159 L-269.717 -65.9109 L-281.247 -68.4538 L-289.143 -82.9157 L-295.101 -88.5815 L-299.025 -95.8854 L-310.339 -102.984 L-316.827 -109.6 L-322.96 -111.929 L-329.858 -119.272 L-334.653 -124.311 L-341.537 -128.811 L-347.337 -138.131 L-352.931 -146.437 L-353.318 -155.367 L-352.703 -164.059 L-354.28 -174.802 L-359.157 -181.923 L-356.724 -187.568 L-358.859 -200.507 L-351.168 -211.07 L-350.605 -220.278 L-345.522 -231.341 L-350.006 -246.547 L-361.056 -244.479 L-374.367 -238.031 L-376.123 -225.317 L-379.232 -216.739 L-380.392 -205.369 L-384.364 -193.875 L-383.396 -181.281 L-379.497 -173.557 L-378.293 -160.669 L-373.663 -149.176 L-372.405 -139.189 L-370.722 -126.778 L-361.31 -121.639 L-352.669 -115.056 L-350.125 -109.385 L-340.119 -98.7938 L-335.549 -96.775 L-324.052 -92.331 L-315.233 -84.532 L-308.357 -74.6105 L-302.147 -70.6506 L-298.26 -64.3074 L-293.031 -54.895 L-288.462 -47.3959 L-286.37 -38.6461 L-281.085 -27.5581 L-274.582 -17.4666 L-271.296 -16.8609 L-265.348 -7.57126 L-261.828 0.660272 L-265.476 7.21164 L-272.587 10.4079 L-280.476 4.21407 L-283.496 -5.14409 L-290.764 -14.9199 L-293.91 -21.0863 L-301.829 -34.0453 L-310.956 -43.1659 L-319.029 -45.3246 L-328.037 -56.3525 L-329.581 -61.7115 L-337.911 -69.8761 L-346.243 -74.7954 L-358.16 -82.6679 L-362.255 -88.7752 L-370.136 -96.0222 L-375.354 -104.166 L-387.254 -94.2387 L-382.216 -87.4319 L-378.182 -75.4356 L-372.962 -67.8111 L-364.063 -65.6743 L-358.342 -60.7018 L-350.847 -51.1013 L-343.221 -42.8168 L-334.659 -36.1053 L-330.348 -31.7743 L-318.67 -22.0531 L-316.73 -15.33 L-313.504 -4.82883 L-306.892 3.71284 L-302.097 7.75803 L-299.59 17.1544 L-291.516 25.2869 L-279.302 31.5216 L-281.358 38.4871 L-288.003 37.0698 L-297.278 37.524 L-304.429 30.6539 L-313.149 23.8525 L-319.154 12.6424 L-323.253 4.36856 L-327.351 -3.90533 L-337.707 -7.98094 L-340.671 -2.69238 L-342.738 7.9781 L-342.857 16.1485 L-339.042 23.6745 L-335.959 30.9444 L-325.312 41.678 L-317.393 50.1384 L-307.588 49.9587 L-300.009 57.1505 L-288.618 62.8087 L-276.434 57.87 L-268.459 50.575 L-262.349 41.0279 L-259.336 34.0106 L-255.192 25.8116 L-248.897 15.2274 L-239.373 7.93693 L-233.221 3.3168 L-222.703 -3.55583 L-219.169 -7.91669 L-205.25 -12.5037 L-191.782 -20.5895 L-180.214 -13.5587 L-173.139 -6.56563 L-174.636 2.09916 L-176.134 10.7639 L-184.311 13.5455 L-197.447 7.55771 L-205.301 6.53266 L-212.832 13.2915 L-216.857 22.6634 L-223.33 23.7497 L-228.62 37.259 L-234.874 41.274 L-241.376 51.3214 L-248.959 60.0948 L-253.677 64.3208 L-258.54 72.4118 L-266.817 73.3129 L-278.48 83.2235 L-286.431 85.238 L-290.448 84.6968 L-296.115 74.8604 L-304.353 73.7311 L-314.157 80.4668 L-318.978 74.4451 L-325.342 67.0092 L-329.945 56.9678 L-335.067 50.6954 L-346.113 38.5724 L-356.2 29.709 L-359.812 26.6757 L-363.35 19.1298 L-361.428 9.80341 L-362.817 -0.800581 L-358.167 -11.3249 L-361.722 -19.9775 L-363.778 -24.7991 L-354.264 -31.0439 L-362.716 -37.1246 L-371.168 -43.2053 L-377.904 -40.1055 L-379.13 -32.1953 L-379.896 -24.2152 L-380.79 -12.1372 L-381.741 -2.84462 L-378.816 8.47733 L-376.345 16.9726 L-376.796 31.4608 L-377.001 35.776 L-373.75 50.0052 L-366.06 48.9104 L-363.816 58.3536 L-355.041 64.5813 L-349.43 63.4155 L-340.993 75.91 L-344.467 83.8564 L-336.943 90.8924 L-324.084 92.3217 L-321.118 93.9829 L-311.857 105.034 L-297.793 102.048 L-291.204 108.324 L-287.404 107.047 L-271.171 106.15 L-269.212 103.152 L-258.112 99.3151 L-254.432 96.6053 L-241.587 90.8183 L-236.465 87.5174 L-234 74.8535 L-225.542 67.5936 L-221.755 57.9449 L-216.029 52.6521 L-210.335 46.1764 L-203.667 42.8402 L-194.439 35.819 L-188.041 25.4833 L-177.378 26.884 L-166.053 31.4111 L-170.891 41.777 L-181.139 45.8296 L-184.268 55.1507 L-196.5 64.0171 L-200.803 63.6045 L-204.623 74.6213 L-211.965 82.5447 L-208.614 88.1874 L-221.564 99.0097 L-223.704 107.905 L-234.388 110.54 L-241.734 116.916 L-245.461 120.695 L-253.741 125.036 L-265.169 127.955 L-272.394 131.233 L-279.17 131.293 L-289.468 134.256 L-299.18 139.571 L-309.219 138.944 L-315.449 124.73 L-327.169 118.538 L-337.754 112.51 L-345.557 108.559 L-351.268 108.811 L-361.103 101.2 L-359.24 90.4579 L-359.021 84.7293 L-369.058 72.044 L-376.761 69.5547 L-382.275 68.0732 L-386.458 81.3701 L-378.348 88.8046 L-376.454 99.6668 L-374.518 112.799 L-377.076 119.685 L-380.807 128.445 L-379.289 133.56 L-380.959 144.806 L-379.363 153.176 L-378.195 160.61 L-373.3 170.276 L-375.933 177.185 L-375.94 189.458 L-376.264 197.168 L-370.788 211.905 L-358.137 209.792 L-352.295 203.587 L-347.664 195.727 L-354.662 189.275 L-355.956 173.271 L-352.416 163.969 L-355.065 149.698 L-360.169 140.973 L-359.582 130.231 L-354.631 126.995 L-339.062 131.433 L-331.564 140.463 L-326.94 150.876 L-321.582 159.888 L-315.085 160.05 L-306.035 160.355 L-296.985 160.659 L-289.01 159.452 L-277.04 156.621 L-268.661 156.059 L-255.596 147.637 L-246.164 145.756 L-239.861 141.836 L-231.99 137.017 L-221.675 133.4 L-219.444 126.087 L-211.97 120.501 L-204.496 114.914 L-201.132 109.502 L-196.734 102.298 L-192.648 89.7066 L-180.606 82.4017 L-174.881 82.4382 L-167.938 95.5954 L-168.497 102.474 L-170.682 114.333 L-179.486 118.332 L-180.675 128.002 L-195.727 137.443 L-207.801 145.28 L-213.485 154.968 L-221.032 158.923 L-229.15 160.458 L-238.714 160.067 L-245.892 169.528 L-258.353 173.211 L-265.08 179.834 L-272.192 190.427 L-283.545 186.32 L-292.217 185.053 L-303.888 187.779 L-311.711 186.088 L-318.757 184.353 L-328.04 182.416 L-331.744 183.11 L-331.03 192.09 L-330.316 201.07 L-323.869 209.108 L-323.976 219.433 L-334.79 228.871 L-341.689 229.426 L-357.163 234.424 L-361.938 240.514 L-363.984 251.416 L-360.718 260.791 L-346.509 266.948 L-338.983 252.801 L-324.916 250.182 L-317.305 242.511 L-305.281 232.127 L-297.532 223.736 L-295.431 209.261 L-286.888 204.092 L-274.638 208.775 L-267.822 218.687 L-263.885 224.031 L-268.427 235.758 L-266.794 246.801 L-257.142 258.097 L-242.389 254.963 L-237.503 241.764 L-243.771 231.656 L-240.909 221.19 L-243.764 212.785 L-246.618 204.38 L-247.822 198.764 L-241.47 189.101 L-231.286 182.715 L-216.68 179.846 L-219.114 195.218 L-221.188 206.148 L-221.994 212.141 L-223.251 223.292 L-214.555 229.616 L-210.896 235.392 L-202.644 226.687 L-204.414 213.21 L-203.314 206.345 L-198.141 195.052 L-200.787 191.187 L-198.701 180.391 L-201.741 168.797 L-193.002 160.644 L-183.838 154.225 L-174.543 149.657 L-166.525 148.059 L-156.108 135.017 L-150.133 126.928 L-144.364 117.239 L-150.067 105.734 L-150.995 96.5879 L-150.962 87.2016 L-157.042 79.6557 L-161.958 73.6924 L-159.906 61.3423 L-159.231 49.6495 L-147.578 50.3638 L-141.493 57.3851 L-135.407 64.4063 L-129.183 75.0106 L-125.876 83.7146 L-120.901 95.8385 L-125.026 104.063 L-127.34 112.778 L-126.673 122.738 L-123.607 132.942 L-122.047 142.567 L-131.602 147.998 L-135.01 155.1 L-148.215 158.213 L-148.3 168.271 L-141.938 169.24 L-136.162 180.093 L-122.96 171.892 L-118.841 164.744 L-108.215 160.472 L-98.8693 154.664 L-88.6712 163.023 L-89.4106 171.803 L-86.5759 181.358 L-80.011 186.816 L-77.0247 193.149 L-71.9702 200.809 L-66.9157 208.469 L-74.3709 217.89 L-78.5404 219.155 L-91.5701 214.024 L-99.156 207.681 L-101.37 195.369 L-105.839 188.644 L-110.881 184.453 L-122.247 191.43 L-119.24 209.23 L-115.653 217.693 L-123.79 224.721 L-135.366 215.238 L-132.57 205.445 L-146.627 199.835 L-148.863 193.516 L-150.178 208.4 L-153.645 219.594 L-141.989 228.708 L-138.604 241.412 L-139.281 254.361 L-142.379 249.2 L-152.662 247.954 L-162.945 246.707 L-165.495 243.4 L-162.384 229.833 L-163.797 222.153 L-168.816 214.142 L-163.92 207.519 L-163.453 195.192 L-163.587 182.68 L-167.904 171.081 L-175.044 169.617 L-176.261 180.453 L-183.194 185.483 L-184.838 196.417 L-188.862 206.017 L-184.164 218.516 L-187.238 224.929 L-186.977 235.615 L-187.694 246.932 L-197.243 254.491 L-210.784 259.248 L-220.591 264.182 L-228.514 273.428 L-225.136 288.636 L-214.458 291.669 L-201.116 288.115 L-194.021 279.767 L-190.132 274.971 L-180.571 267.886 L-171.557 266.789 L-163.4 271.633 L-153.81 274.172 L-145.698 282.958 L-132.152 280.517 L-125.116 269.665 L-117.598 264.36 L-110.713 252.079 L-110.766 243.284 L-100.323 232.542 L-90.1808 230.509 L-79.2996 238.552 L-76.4734 246.472 L-63.1945 246.481 L-54.8701 235.309 L-49.6529 229.866 L-45.1776 217.544 L-47.8546 212.807 L-49.1532 200.135 L-57.0622 197.996 L-58.2578 181.59 L-64.2264 174.795 L-62.7552 163.283 L-67.8668 156.972 L-80.662 148.337 L-88.5902 134.895 L-96.3306 130.587 L-103.614 119.869 L-97.4831 111.966 L-100.43 103.122 L-100.536 89.2277 L-98.6306 78.2305 L-107.146 71.8423 L-112.284 67.5748 L-117.814 60.1001 L-128.028 47.2423 L-135.867 41.7142 L-137.399 32.8616 L-149.822 25.7711 L-151.098 22.6447 L-157.248 8.17947 L-157.78 -7.52204 L-151.146 -12.8303 L-141.05 -14.1418 L-134.623 -16.8281 L-130.711 -20.7737 L-122.856 -24.6668 L-122.188 -13.3905 L-130.825 -2.9828 L-128.289 4.98407 L-126.733 20.8929 L-119.398 23.7034 L-112.969 28.9899 L-104.467 40.7455 L-97.1748 50.207 L-89.6583 60.4383 L-80.2897 57.5705 L-70.921 54.7027 L-59.138 49.4686 L-55.5752 49.0282 L-50.2907 59.973 L-48.9817 72.476 L-53.4138 68.9449 L-67.6239 73.1638 L-75.1999 78.6229 L-78.1659 83.6407 L-79.6583 95.4695 L-79.4455 110.049 L-73.6462 119.455 L-62.5333 124.607 L-51.7465 135.901 L-47.3146 146.285 L-43.1089 152.127 L-40.8748 163.92 L-41.9261 170.358 L-35.3173 184.35 L-32.5115 190.459 L-26.0598 202.464 L-21.8265 209.681 L-23.3838 223.293 L-15.7486 236.604 L-1.06283 229.945 L5.95571 215.971 L7.51724 207.238 L3.51582 200.565 L-5.04557 188.793 L-7.87291 186.393 L-12.1316 173.095 L-19.5743 159.777 L-15.8754 149.365 L-16.5549 139.403 L-5.60286 132.158 L0.497177 121.685 L3.66619 114.335 L10.7487 106.982 L18.2807 101.103 L28.9836 93.0806 L32.7299 93.9006 L25.4019 82.3377 L21.6516 77.5828 L12.6677 77.6266 L3.14318 81.3865 L-5.469 87.1763 L-16.3037 94.2839 L-19.4623 104.444 L-25.5988 113.887 L-32.0369 119.542 L-40.7672 119.851 L-52.299 112.117 L-51.0663 104.861 L-54.0586 96.7306 L-40.7202 88.4742 L-33.1939 89.0987 L-31.4987 82.1201 L-25.7241 70.1716 L-26.0708 63.2196 L-33.3597 52.5458 L-36.7877 47.6813 L-40.1416 37.7835 L-44.5397 33.3896 L-53.342 28.1215 L-59.8786 19.5139 L-59.6211 12.6907 L-64.4863 0.851731 L-65.4901 -3.26368 L-76.2871 -10.7992 L-86.6696 -7.47585 L-90.4177 -0.945553 L-81.2628 12.5041 L-77.6132 15.3532 L-71.9117 26.6502 L-76.7584 32.4111 L-83.1337 41.1049 L-94.3948 29.6791 L-103.31 22.8344 L-99.1091 10.4079 L-103.956 5.33264 L-108.916 -4.78603 L-103.687 -13.2242 L-98.4335 -26.195 L-90.6604 -29.9325 L-81.4738 -34.2911 L-76.4601 -30.0262 L-68.0775 -29.3074 L-56.2423 -25.3875 L-49.6661 -24.7623 L-45.7689 -10.7107 L-40.569 -5.24006 L-37.762 7.43855 L-30.5517 14.5624 L-19.0055 27.1476 L-15.3954 30.0364 L-9.20422 44.6735 L-6.66907 56.219 L-2.2397 62.2276 L7.17231 59.4747 L16.5843 56.7218 L13.3233 49.601 L12.7862 40.0558 L9.491 31.1126 L3.3266 20.1714 L-1.7533 18.4027 L-6.34655 15.4572 L-15.9498 2.441 L-20.8721 -3.18294 L-23.2487 -14.4934 L-23.3875 -27.5113 L-33.3199 -35.7722 L-39.4696 -41.3821 L-46.4894 -47.9148 L-58.1688 -53.2031 L-70.1178 -55.3774 L-84.0489 -55.1744 L-95.0244 -55.6133 L-103.195 -50.1538 L-111.919 -45.133 L-121.281 -46.9396 L-133.051 -39.4066 L-144.504 -41.346 L-153.827 -34.9296 L-163.068 -30.1628 L-177.375 -30.5436 L-177.319 -38.1569 L-174.52 -49.4876 L-170.647 -59.4436 L-160.49 -63.2258 L-154.491 -61.0175 L-143.03 -67.2094 L-138.002 -68.3078 L-122.757 -70.0987 L-115.589 -73.5756 L-107.722 -80.4834 L-97.8973 -78.1621 L-90.9198 -77.6219 L-82.6742 -79.6289 L-73.0806 -77.2802 L-63.8225 -76.227 L-60.5082 -72.7226 L-49.8853 -69.3859 L-42.6662 -64.2934 L-33.3521 -65.9509 L-24.9024 -65.4279 L-25.697 -71.9238 L-28.689 -81.1604 L-31.681 -90.3969 L-40.4993 -88.9696 L-50.236 -88.8114 L-56.2505 -101.019 L-49.3279 -109.064 L-40.6675 -111.852 L-34.4226 -119.247 L-29.2361 -126.652 L-19.4653 -131.807 L-21.7601 -144.561 L-23.7664 -152.585 L-27.2125 -158.202 L-40.8561 -150.112 L-43.9479 -146.515 L-48.0525 -133.79 L-51.8606 -134.322 L-56.2786 -124.9 L-68.3301 -120.903 L-73.6805 -108.325 L-81.198 -105.066 L-91.3929 -96.7043 L-99.4823 -102.436 L-109.195 -97.5734 L-118.377 -100.22 L-124.566 -89.7837 L-133.057 -88.1265 L-143.007 -85.0431 L-153.894 -80.6636 L-166.9 -79.4204 L-178.692 -80.8408 L-182.356 -85.491 L-189.239 -93.7551 L-190.24 -101.125 Z"/>
<path fill="transparent" stroke="black" d="M 400 -400 L400 -320 L400 -240 L400 -160 L400 -80 L400 -0 L400 80 L400 160 L400 240 L400 320 L400 400 L320 400 L240 400 L160 400 L80 400 L0 400 L-80 400 L-160 400 L-240 400 L-320 400 L-400 400 L-400 320 L-400 240 L-400 160 L-400 80 L-400 -0 L-400 -80 L-400 -160 L-400 -240 L-400 -320 L-400 -400 L-320 -400 L-240 -400 L-160 -400 L-80 -400 L0 -400 L80 -400 L160 -400 L240 -400 L320 -400 Z"/>
</svg>
