<?xml version="1.0"?>
<!DOCTYPE svg PUBLIC "-//W3C//DTD SVG 1.1//EN" "http://www.w3.org/Graphics/SVG/1.1/DTD/svg11.dtd">
<svg width="600" height="600" viewBox="-400 -400 800 800" version="1.1" xmlns="http://www.w3.org/2000/svg">
<path fill="transparent" stroke="black" d="M 288.502 -27.4645 Q282.832 -43.9704, 279.006 -50.018 Q279.754 -61.3825, 274.848 -75.8187 Q281.779 -86.9983, 282.437 -104.29 Q286.497 -110.961, 293.561 -121.375 Q304.862 -136.371, 316.286 -136.231 Q324.516 -142.25, 335.833 -147.976 Q342.184 -161.473, 343.543 -171.259 Q339.167 -184.827, 341.614 -197.479 Q342.337 -210.64, 340.497 -222.288 Q338.765 -237.83, 341.373 -247.111 Q342.372 -263.328, 349.849 -272.724 Q363.682 -274.681, 370.983 -272.103 Q374.381 -263.893, 369.688 -246.312 Q372.443 -233.011, 369.182 -224.238 Q373.59 -206.312, 369.792 -198.292 Q372.279 -187.605, 367.674 -173.803 Q369.285 -158.206, 370.891 -151.521 Q367.784 -135.839, 355.485 -125.085 Q344.459 -122.332, 339.357 -111.096 Q327.584 -113.011, 315.523 -102.023 Q315.532 -94.8525, 306.291 -83.3294 Q305.521 -74.0618, 310.367 -59.6961 Q314.778 -48.0546, 313.817 -38.5756 Q318.81 -27.0733, 317.946 -11.3625 Q323.691 -2.47248, 320.678 13.8342 Q319.025 25.0177, 318.988 33.6164 Q325.01 44.4594, 329.384 51.6769 Q338.134 61.7692, 345.918 60.9043 Q353.627 49.6031, 351.445 37.7671 Q348.147 22.0273, 347.75 15.3779 Q347.765 -0.298525, 343.479 -7.5719 Q344.253 -25.4669, 340.957 -37.8996 Q343.346 -49.8384, 343.54 -56.9429 Q340.317 -70.6559, 340.683 -83.2493 Q346.103 -88.6341, 356.541 -94.2281 Q368.831 -94.1867, 377.366 -84.5167 Q371.59 -68.4541, 371.152 -57.2248 Q371.559 -40.8078, 372.372 -30.6471 Q375.035 -22.5165, 372.997 -9.53896 Q370.691 0.714014, 372.882 6.90982 Q371.794 21.1245, 374.886 28.7919 Q374.881 40.2233, 381.887 55.0977 Q375.55 64.2321, 369.213 73.3664 Q366.998 81.0542, 349.957 85.5789 Q340.888 89.4149, 327.167 100.875 Q316.451 108.268, 315.792 118.346 Q323.779 129.033, 337.88 133.159 Q345.268 125.924, 355.403 117.229 Q366.016 107.583, 376.88 112.468 Q379.423 117.23, 379.596 131.211 Q371.028 138.937, 365.454 150.702 Q354.031 156.198, 343.499 158.701 Q330.217 168.627, 320.566 162.929 Q309.735 156.068, 302.941 145.49 Q292.932 138.58, 282.644 130.312 Q277.223 123.581, 266.242 118.162 Q255.946 109.118, 248.351 93.8543 Q246.56 84.841, 252.149 72.8014 Q260.53 62.1337, 270.209 64.7115 Q279.082 75.3846, 286.651 88.1157 Q301.61 84.4139, 305.818 74.8322 Q305.905 64.7948, 298.603 52.4256 Q292.701 42.8868, 279.098 39.6675 Q266.708 31.26, 254.052 31.8201 Q243.589 22.9397, 244.37 7.07713 Q239.273 -0.979128, 236.444 -6.23288 Q232.653 -20.9103, 226.093 -30.911 Q216.354 -26.8778, 212.788 -12.2947 Q210.135 -5.00925, 212.284 11.0423 Q213.596 23.9524, 209.144 40.0827 Q210.477 45.454, 210.78 63.5456 Q219.192 72.9558, 218.808 84.0945 Q219.188 95.1174, 220.145 102.601 Q228.352 116.585, 233.013 123.803 Q236.081 138.176, 233.119 148.765 Q223.211 159.777, 206.185 161.844 Q198.929 173.37, 194.098 177.29 Q191.018 194.136, 189.331 201.758 Q179.185 213.052, 174.215 223.595 Q172.415 232.24, 161.914 249.677 Q149.992 250.625, 139.278 248.028 Q137.388 237.444, 135.498 226.86 Q141.594 216.037, 149.366 207.437 Q155.508 193.714, 163.77 186.268 Q170.944 178.08, 173.444 164.201 Q173.863 154.388, 181.466 144.536 Q191.351 130.041, 192.509 122.117 Q189.587 107.453, 186.069 95.6089 Q181.564 80.8794, 182.622 70.3834 Q182.559 59.1661, 174.42 45.1104 Q169.176 44.5334, 157.025 49.822 Q147.976 61.2122, 151.553 71.8842 Q153.971 84.3566, 158.67 102.259 Q158.375 113.378, 155.266 128.751 Q151.176 141.031, 145.519 149.713 Q144.645 164.403, 135.837 172.866 Q128.325 181.384, 109.708 174.026 Q106.825 156.316, 110.283 145.777 Q112.931 131.217, 118.743 118.17 Q123.193 109.155, 124.209 96.3143 Q119.989 85.2306, 118.643 70.3364 Q116.212 51.5366, 123.652 40.0636 Q130.583 34.0626, 131.039 18.1163 Q129.728 8.60572, 112.929 10.027 Q98.2691 17.078, 87.0905 24.484 Q75.8943 26.3527, 66.1283 35.0251 Q53.0516 40.609, 46.396 49.0952 Q39.2914 63.218, 26.0361 59.5266 Q14.0662 57.4117, 6.29485 53.8602 Q16.3145 38.0335, 22.6753 34.128 Q26.6006 23.2788, 35.8088 11.5552 Q46.0786 4.73501, 56.2896 -0.535813 Q68.4162 -3.85752, 83.1463 -8.03213 Q96.2871 -8.34178, 103.758 -15.8178 Q110.482 -18.8473, 122.589 -14.9238 Q135.274 -18.8057, 133.188 -26.6663 Q130.11 -38.2975, 119.428 -40.8511 Q102.19 -43.5501, 94.1577 -52.7389 Q81.1614 -47.8164, 70.8486 -40.6416 Q64.3559 -35.654, 52.7994 -28.3402 Q39.3411 -28.2683, 25.8048 -24.9328 Q20.9915 -12.8718, 12.7772 -0.727851 Q10.6316 5.73186, -1.52488 7.98311 Q-7.24634 19.5051, -12.8586 29.6972 Q-15.1997 38.5501, -26.5118 47.3576 Q-33.4285 47.2616, -35.5187 36.2097 Q-37.6088 25.1577, -32.1312 12.8313 Q-25.802 1.95943, -17.1174 -4.56172 Q-19.7443 -16.1455, -11.9152 -29.7194 Q-0.936793 -36.3232, 8.87887 -44.7132 Q13.2135 -51.2043, 27.0406 -57.2541 Q38.2126 -61.607, 54.1027 -64.8298 Q66.9555 -73.7949, 73.9431 -81.9375 Q75.696 -93.8282, 73.7185 -104.791 Q66.0792 -117.617, 61.501 -127.214 Q61.7671 -137.919, 62.967 -150.71 Q71.8575 -157.818, 84.2911 -152.602 Q93.1715 -141.303, 98.4866 -130.473 Q101.46 -118.44, 106.931 -104.977 Q111.685 -88.9088, 111.71 -76.4938 Q122.342 -66.9479, 136.971 -67.4432 Q148.906 -66.9645, 156.685 -81.1581 Q148.673 -90.0597, 146.7 -105.016 Q136.345 -111.877, 131.466 -126.219 Q129.02 -135.048, 121.506 -152.825 Q118.909 -160.579, 112.139 -171.57 Q105.451 -178.03, 93.7522 -186.831 Q85.2418 -194.387, 73.5896 -204.751 Q66.2353 -206.511, 68.36 -216.613 Q77.6853 -228.37, 84.8667 -231.434 Q99.3949 -225.858, 107.964 -217.399 Q116.637 -211.476, 125.311 -205.553 Q128.543 -201.728, 139.556 -189.886 Q143.582 -178.68, 147.606 -164.903 Q154.873 -147.246, 160.56 -139.61 Q166.241 -122.711, 173.138 -115.507 Q177.675 -99.9487, 179.941 -86.9725 Q184.578 -75.6164, 182.503 -60.2565 Q171.29 -49.6876, 162.844 -43.8585 Q157.68 -32.521, 159.611 -18.4611 Q159.091 -4.52382, 155.535 1.86934 Q157.333 20.8684, 167.955 19.9695 Q183.543 14.9705, 184.87 5.32776 Q187.45 -3.08561, 182.273 -17.0019 Q185.739 -25.8581, 196.102 -33.8902 Q201.078 -49.3629, 208.763 -57.365 Q217.097 -63.2815, 219.227 -81.0463 Q215.167 -91.8371, 210.205 -102.869 Q202.856 -111.411, 204.728 -124.874 Q196.446 -138.691, 189.807 -147.456 Q181.857 -159.911, 178.62 -165.623 Q177.17 -178.089, 169.571 -189.028 Q169.86 -200.957, 164.729 -217.24 Q156.334 -221.945, 153.064 -234.261 Q162.372 -249.868, 175.582 -250.845 Q187.901 -250.803, 193.839 -255.168 Q200.911 -264.889, 216.128 -255.513 Q213.857 -238.56, 207.851 -227.768 Q200.344 -217.992, 195.01 -212.335 Q196.041 -198.757, 202.981 -183.478 Q206.819 -173.455, 216.688 -163.807 Q223.246 -150.658, 229.07 -136.488 Q235.623 -125.982, 238.457 -115.982 Q244.861 -106.313, 248.033 -93.8164 Q250.542 -79.4425, 246.023 -67.8577 Q248.537 -49.1907, 252.952 -44.6541 Q258.899 -31.604, 261.047 -20.6961 Q264.797 -6.74184, 269.761 2.21 Q277.825 13.4799, 291.282 11.232 Q293.573 5.71868, 293.138 -12.5991 Z"/>
<path fill="transparent" stroke="black" d="M -314.172 -73.199 L-330.772 -66.2957 L-336.594 -58.4766 L-345.678 -50.9767 L-349.158 -39.9138 L-351.669 -28.5331 L-355.661 -21.9367 L-362.994 -14.147 L-373.208 -12.4844 L-379.043 -18.677 L-374.878 -36.5449 L-372.951 -49.4772 L-370.404 -59.9282 L-368.144 -73.793 L-367.015 -89.7183 L-365.874 -102.328 L-370.399 -119.473 L-371.853 -127.901 L-371.162 -145.133 L-371.744 -155.266 L-370.078 -168.633 L-374.211 -178.437 L-375.587 -188.173 L-370.378 -200.529 L-372.243 -209.914 L-354.101 -212.116 L-346.252 -212.306 L-339.607 -194.885 L-343.754 -183.203 L-344.129 -174.08 L-344.192 -160.798 L-341.826 -147.551 L-342.271 -133.506 L-340.332 -120.34 L-329.699 -105.916 L-322.565 -103.824 L-303.379 -98.5246 L-297.41 -101.864 L-281.505 -99.1379 L-266.716 -99.5284 L-255.669 -98.6887 L-240.115 -104.116 L-229.84 -102.119 L-217.192 -105.585 L-202.275 -102.736 L-191.137 -105.284 L-178.038 -104.353 L-162.225 -102.004 L-153.878 -95.6651 L-143.665 -93.3036 L-128.566 -85.7267 L-120.897 -82.6742 L-112.665 -89.4883 L-109.983 -107.202 L-110.819 -114.641 L-127.674 -125.634 L-137.533 -125.077 L-147.927 -126.588 L-160.264 -125.312 L-173.231 -132.083 L-184.834 -130.456 L-195.189 -133.046 L-205.545 -135.636 L-218.16 -134.91 L-231.751 -134.889 L-245.291 -128.152 L-253.731 -130.611 L-267.155 -124.209 L-278.691 -128.719 L-294.135 -128.006 L-306.685 -128.086 L-311.924 -136.04 L-318.071 -151.833 L-314.8 -165.93 L-313.046 -173.632 L-318.511 -192.146 L-312.064 -201.992 L-309.849 -217.807 L-312.973 -229.354 L-322.913 -235.752 L-324.443 -248.475 L-308.563 -256.263 L-297.248 -251.113 L-287.383 -245.211 L-281.335 -230.282 L-270.056 -222.612 L-258.324 -218.638 L-247.395 -221.801 L-235.307 -216.869 L-226.2 -210.124 L-219.127 -194.901 L-219.753 -189.252 L-238.091 -184.87 L-244.885 -192.849 L-258.56 -192.358 L-268.592 -194.13 L-278.906 -197.686 L-287.38 -190.376 L-292.707 -178.942 L-285.704 -169.501 L-281.19 -157.486 L-265.998 -158.295 L-256.284 -159.449 L-245.259 -160.136 L-236.993 -159.986 L-220.344 -160.667 L-209.656 -159.482 L-196.526 -165.9 L-185.65 -158.574 L-178.47 -165.119 L-164.225 -159.097 L-156.316 -160.047 L-146.281 -161.039 L-131.333 -160.501 L-124.15 -153.348 L-116.294 -147.489 L-99.9318 -147.95 L-90.8633 -138.497 L-85.8545 -129.924 L-78.1085 -117.263 L-78.0114 -104.404 L-84.606 -92.9841 L-82.4448 -77.3807 L-86.2983 -68.9405 L-100.252 -59.237 L-104.582 -50.0847 L-103.573 -37.5257 L-102.106 -24.8855 L-103.439 -13.1161 L-105.981 -2.40219 L-109.231 5.73249 L-117.923 21.0068 L-129.06 24.4673 L-144.688 26.3795 L-155.635 27.2627 L-166.307 40.6807 L-163.26 45.3702 L-150.68 55.9976 L-137.057 52.5289 L-129.623 54.645 L-112.449 56.5519 L-100.897 54.6319 L-89.4581 48.6662 L-90.1253 29.0054 L-87.6994 20.7346 L-83.1924 4.43968 L-77.4414 -4.77105 L-75.0425 -12.5486 L-70.9738 -24.341 L-71.5853 -39.6545 L-71.269 -46.8872 L-60.5171 -58.9159 L-53.7337 -73.5931 L-50.3361 -83.7126 L-51.1873 -101.387 L-44.5852 -110.872 L-37.1925 -122.314 L-23.1368 -127.026 L-12.6058 -118.199 L-13.7565 -102.803 L-14.9526 -92.7416 L-26.7866 -84.4708 L-27.7411 -75.1016 L-26.3883 -56.8587 L-32.928 -47.8517 L-38.9277 -34.4741 L-43.6136 -26.0853 L-44.4095 -14.3021 L-48.5777 -0.380008 L-53.1801 8.07236 L-55.5263 22.4016 L-62.6564 33.2918 L-62.9778 49.9187 L-61.243 57.5777 L-71.4501 67.8213 L-79.2837 82.5466 L-74.3685 90.8169 L-64.6595 101.838 L-57.7005 112.843 L-50.7982 124.292 L-45.8015 130.68 L-38.7468 144.693 L-31.4998 154.339 L-22.4939 160.573 L-17.754 170.288 L-5.61199 174.477 L-1.37793 187.857 L-5.81474 199.456 L-16.8499 203.713 L-28.4257 195.571 L-41.0067 189.919 L-48.1224 176.301 L-54.8568 166.988 L-62.2658 157.203 L-68.1144 148.308 L-77.0275 140.632 L-81.7727 126.996 L-85.6164 117.482 L-96.0867 105.782 L-99.6458 97.2927 L-118.593 92.9177 L-127.024 86.7844 L-136.09 83.0497 L-146.609 75.0499 L-160.864 75.1144 L-168.204 77.325 L-183.096 70.8662 L-189.073 66.5002 L-194.549 58.8746 L-210.089 54.0014 L-221.613 52.4649 L-227.185 63.084 L-221.787 80.2537 L-210.731 82.8037 L-196.897 96.0975 L-190.71 102.002 L-177.376 102.835 L-167.557 106.013 L-151.666 110.335 L-142.366 114.357 L-127.313 118.991 L-118.114 127.382 L-113.636 133.236 L-108.799 143.03 L-99.6969 147.451 L-95.28 161.864 L-86.0862 169.681 L-81.0281 183.617 L-70.4025 190.032 L-68.2666 203.899 L-58.6392 210.42 L-49.8564 218.128 L-40.9686 225.783 L-25.9196 230.632 L-17.5227 230.798 L-8.47823 234.37 L4.71841 235.818 L11.6347 247.961 L13.4198 263.838 L19.8654 272.117 L23.1069 285.531 L19.8496 294.241 L7.31568 298.54 L-7.71754 288.797 L-10.6603 279.605 L-23.7849 270.767 L-31.6665 257.667 L-44.7303 252.36 L-57.4011 251.105 L-69.5391 240.525 L-80.942 231.278 L-90.063 223.803 L-95.4321 208.755 L-97.5535 203.733 L-104.557 193.85 L-111.798 183.587 L-122.116 173.895 L-122.401 164.433 L-126.582 153.158 L-139.947 144.582 L-144.173 140.453 L-161.235 139.443 L-171.144 140.983 L-183.075 135.305 L-199.519 131.481 L-207.471 127.638 L-216.213 118.226 L-224.647 111.009 L-239.609 103.51 L-244.04 101.221 L-255.815 90.9409 L-251.457 78.4568 L-253.11 68.5841 L-254.569 53.4873 L-259.434 44.8003 L-265.743 42.8227 L-276.683 46.8685 L-278.399 61.2799 L-279.887 74.2994 L-282.747 89.8557 L-277.684 100.489 L-273.617 113.524 L-272.91 122.988 L-288.011 134.637 L-296.849 139.667 L-311.649 134.158 L-310.447 122.054 L-312.694 112.502 L-308.251 97.8454 L-311.577 86.1868 L-309.254 72.9657 L-307.444 62.8024 L-307.847 48.6252 L-300.681 40.1431 L-295.918 32.2862 L-290.964 20.7845 L-277.339 14.0177 L-266.799 12.2125 L-249.507 9.68204 L-237.052 14.357 L-224.757 16.8722 L-217.123 20.3437 L-203.55 22.0992 L-189.456 23.8704 L-177.58 17.8638 L-176.87 9.2507 L-179.391 -6.04277 L-192.234 -10.5323 L-205.996 -14.2555 L-219.087 -14.975 L-231.663 -11.8764 L-245.095 -14.8181 L-252.259 -16.3113 L-263.876 -16.3622 L-275.505 -18.7606 L-287.035 -11.5598 L-296.471 -7.09291 L-305.789 2.53834 L-313.069 16.7636 L-321.991 21.7577 L-327.278 28.2271 L-337.174 40.4098 L-339.711 49.2007 L-339.019 63.7747 L-342.119 76.9967 L-338.936 90.1031 L-344.701 101.885 L-344.485 114.187 L-343.175 126.303 L-337.366 138.812 L-336.626 150.191 L-334.973 164.829 L-338.028 175.951 L-337.719 190.675 L-339.405 206.847 L-344.873 217.793 L-354.945 222.294 L-364.757 220.358 L-377.25 213.683 L-371.266 197.602 L-367.534 189.926 L-367.327 173.565 L-367.073 162.73 L-370.126 150.945 L-369.612 138.329 L-367.238 124.19 L-368.649 113.95 L-369.911 102.354 L-371.255 95.3234 L-370.962 84.5234 L-370.131 73.8111 L-371.312 56.1649 L-368.216 42.7048 L-367.285 32.0279 L-366.149 19.7287 L-354.771 8.62908 L-348.551 2.47148 L-339.432 -2.34238 L-330.053 -14.3265 L-320.515 -24.2548 L-313.367 -35.698 L-303.239 -41.5207 L-288.638 -40.9237 L-278.735 -44.1426 L-266.171 -46.2078 L-255.88 -41.2562 L-241.286 -41.6111 L-226.962 -41.461 L-216.175 -47.7994 L-203.226 -45.8718 L-193.805 -46.0041 L-183.189 -41.1371 L-170.93 -40.3882 L-158.735 -38.2114 L-155.538 -27.6204 L-152.933 -14.0312 L-147.019 -4.46936 L-136.128 0.513655 L-125.872 -12.8453 L-127.624 -31.4579 L-129.41 -42.9131 L-137.201 -55.3769 L-146.052 -63.5942 L-155.038 -69.7138 L-166.637 -67.3758 L-178.007 -71.0713 L-191.908 -71.2093 L-205.004 -73.6693 L-218.979 -74.9953 L-228.706 -74.088 L-243.211 -73.7191 L-253.421 -74.9685 L-265.399 -74.0458 L-276.173 -70.9522 L-285.992 -74.8951 L-292.695 -69.7953 L-306.489 -70.0031 Z"/>
<path fill="transparent" stroke="black" d="M 400 400 L400 384 L400 368 L400 352 L400 336 L400 320 L400 304 L400 288 L400 272 L400 256 L400 240 L400 224 L400 208 L400 192 L400 176 L400 160 L400 144 L400 128 L400 112 L400 96 L400 80 L400 64 L400 48 L400 32 L400 16 L400 0 L400 -16 L400 -32 L400 -48 L400 -64 L400 -80 L400 -96 L400 -112 L400 -128 L400 -144 L400 -160 L400 -176 L400 -192 L400 -208 L400 -224 L400 -240 L400 -256 L400 -272 L400 -288 L400 -304 L400 -320 L400 -336 L400 -352 L400 -368 L400 -384 L400 -400 L384 -400 L368 -400 L352 -400 L336 -400 L320 -400 L304 -400 L288 -400 L272 -400 L256 -400 L240 -400 L224 -400 L208 -400 L192 -400 L176 -400 L160 -400 L144 -400 L128 -400 L112 -400 L96 -400 L80 -400 L64 -400 L48 -400 L32 -400 L16 -400 L0 -400 L-16 -400 L-32 -400 L-48 -400 L-64 -400 L-80 -400 L-96 -400 L-112 -400 L-128 -400 L-144 -400 L-160 -400 L-176 -400 L-192 -400 L-208 -400 L-224 -400 L-240 -400 L-256 -400 L-272 -400 L-288 -400 L-304 -400 L-320 -400 L-336 -400 L-352 -400 L-368 -400 L-384 -400 L-400 -400 L-400 -384 L-400 -368 L-400 -352 L-400 -336 L-400 -320 L-400 -304 L-400 -288 L-400 -272 L-400 -256 L-400 -240 L-400 -224 L-400 -208 L-400 -192 L-400 -176 L-400 -160 L-400 -144 L-400 -128 L-400 -112 L-400 -96 L-400 -80 L-400 -64 L-400 -48 L-400 -32 L-400 -16 L-400 0 L-400 16 L-400 32 L-400 48 L-400 64 L-400 80 L-400 96 L-400 112 L-400 128 L-400 144 L-400 160 L-400 176 L-400 192 L-400 208 L-400 224 L-400 240 L-400 256 L-400 272 L-400 288 L-400 304 L-400 320 L-400 336 L-400 352 L-400 368 L-400 384 L-400 400 L-384 400 L-368 400 L-352 400 L-336 400 L-320 400 L-304 400 L-288 400 L-272 400 L-256 400 L-240 400 L-224 400 L-208 400 L-192 400 L-176 400 L-160 400 L-144 400 L-128 400 L-112 400 L-96 400 L-80 400 L-64 400 L-48 400 L-32 400 L-16 400 L0 400 L16 400 L32 400 L48 400 L64 400 L80 400 L96 400 L112 400 L128 400 L144 400 L160 400 L176 400 L192 400 L208 400 L224 400 L240 400 L256 400 L272 400 L288 400 L304 400 L320 400 L336 400 L352 400 L368 400 L384 400 Z"/>
</svg>
