<?xml version="1.0"?>
<!DOCTYPE svg PUBLIC "-//W3C//DTD SVG 1.1//EN" "http://www.w3.org/Graphics/SVG/1.1/DTD/svg11.dtd">
<svg width="600" height="600" viewBox="-198.228 -236.43 390.141 423.433" version="1.1" xmlns="http://www.w3.org/2000/svg">
<path fill="transparent" stroke="black" d="M 59.9308 13.3701 Q52.1748 13.0343, 45.0159 13.1806 Q36.0205 15.7464, 27.3405 15.8375 Q23.5953 13.6175, 11.3044 13.4972 Q8.91872 23.2733, 18.5907 26.6381 Q21.8057 36.5352, 28.4063 37.8214 Q36.019 36.3892, 44.4765 35.2505 Q50.8946 34.3014, 57.8271 32.4942 Q64.7597 30.6869, 71.6533 28.8494 Q81.7593 23.027, 86.1033 17.5825 Q95.4229 13.5772, 100.105 5.9124 Q105.74 3.67866, 107.266 -0.806635 Q117.044 -9.9972, 119.463 -8.51819 Q128.241 -16.3045, 129.614 -21.4075 Q136.267 -28.5157, 139.76 -32.8159 Q144.826 -35.2415, 153.694 -37.5722 Q159.524 -39.6947, 165.362 -41.4774 Q169.171 -43.0905, 171.117 -54.1633 Q175.096 -62.2283, 188.085 -59.3063 Q191.913 -54.9162, 191.885 -47.5842 Q191.857 -40.2522, 186.008 -37.613 Q180.732 -28.9068, 177.792 -23.7811 Q170.177 -15.0225, 162.228 -14.4127 Q152.604 -16.2528, 143.408 -4.30733 Q138.909 -0.758255, 130.345 7.16852 Q128.236 13.3221, 120.034 19.4127 Q111.481 21.836, 108.086 25.2989 Q101.131 32.8347, 94.8719 36.6832 Q87.5903 40.811, 80.3088 44.9388 Q73.3829 42.857, 60.7997 47.4044 Q56.5431 45.8479, 44.887 49.3674 Q35.1755 52.9538, 30.083 59.6976 Q21.1621 53.8303, 13.5175 48.4219 Q7.21092 59.6165, 2.27763 64.5509 Q12.9798 70.5636, 20.0622 71.5692 Q28.4007 77.8549, 34.6773 80.6245 Q31.5364 92.1054, 34.1186 96.9786 Q42.4517 104.201, 49.5905 105.781 Q51.0797 97.9134, 52.5688 90.0461 Q48.0338 77.5176, 48.0005 72.226 Q52.2354 68.9832, 60.5091 62.7782 Q70.4212 64.8677, 77.0959 61.6386 Q83.7706 58.4094, 90.8402 62.8314 Q96.8388 69.85, 95.2118 77.2669 Q100.624 89.5214, 105.619 95.7323 Q113.589 89.0161, 112.492 76.6363 Q115.278 74.2723, 115.776 66.1233 Q114.338 55.2427, 111.744 50.6499 Q119.954 39.8617, 125.858 37.0647 Q132.475 43.7311, 134.812 52.3412 Q138.483 53.5366, 144.237 47.8625 Q149.991 42.1884, 151.589 36.4248 Q150.862 24.0054, 147.467 18.9883 Q148.384 12.6875, 160.148 5.20774 Q165.047 10.7551, 169.946 16.3024 Q172.553 22.4528, 172.516 33.6068 Q178.6 38.8962, 183.407 44.1978 Q176.476 46.1292, 169.546 48.0605 Q164.412 52.1183, 158.081 60.5647 Q147.849 66.1013, 150.376 72.0075 Q148.473 83.1714, 147.062 87.557 Q140.262 80.0493, 133.461 72.5417 Q130.482 72.0946, 127.475 82.0521 Q126.504 91.9028, 130.62 101.658 Q125.549 106.605, 119.49 110.924 Q108.151 112.119, 101.231 111.781 Q97.6606 110.854, 94.1404 117.813 Q90.6203 124.772, 83.8863 122.126 Q78.3971 118.9, 82.0539 112.691 Q85.7107 106.482, 85.8549 101.997 Q86.3884 92.9616, 80.7584 83.6125 Q78.3759 77.7446, 67.4559 76.2389 Q68.2838 81.7013, 61.5157 92.5055 Q68.9428 93.287, 67.4161 101.731 Q65.7647 107.458, 62.5705 115.842 Q60.0681 121.036, 50.6294 125.661 Q42.2549 123.767, 38.546 118.732 Q33.4715 113.606, 22.6225 107.151 Q20.0984 101.07, 16.0659 94.8401 Q13.1263 86.904, 8.34249 85.9782 Q1.30082 76.218, -2.40659 83.0785 Q-4.97334 96.0465, -0.0430922 105.692 Q5.51852 113.706, 11.5913 120.313 Q15.7859 131.073, 25.0642 135.737 Q33.0744 141.013, 36.0956 145.317 Q46.2313 148.653, 53.7573 142.99 Q63.2331 143.054, 71.2402 142.736 Q82.1261 143.703, 87.8485 143.967 Q97.0139 141.516, 102.589 152.728 Q93.9677 160.269, 86.6719 162.095 Q79.3761 163.92, 72.5962 162.286 Q62.7722 165.612, 55.3705 165.883 Q41.4531 165.805, 31.3144 163.611 Q26.7043 166.41, 18.5631 155.452 Q17.8767 148.428, 7.97485 150.01 Q2.19494 152.39, 0.555663 163.187 Q6.51888 170.265, 8.46201 177.652 Q0.377581 187.003, -8.21706 185.847 Q-16.3114 185.469, -16.7144 175.144 Q-17.4298 164.978, -12.9984 161.056 Q-14.0008 154.796, -9.7003 149.369 Q-5.3208 138.058, -7.53184 133.263 Q-9.59304 121.3, -17.0571 121.103 Q-25.4547 113.17, -27.6729 110.286 Q-22.2022 102.221, -17.4841 99.6561 Q-19.8495 90.1374, -15.7786 88.047 Q-16.4348 78.6049, -19.277 71.9127 Q-14.081 63.2444, -13.0914 56.3916 Q-10.6993 51.2543, -8.34398 45.9383 Q-3.16404 42.5656, -0.683303 41.856 Q1.70261 35.2553, -2.08257 26.3546 Q-1.42596 22.428, -8.27029 23.5072 Q-17.2975 23.1661, -24.5899 25.82 Q-20.5823 37.7771, -24.7327 42.6779 Q-27.0888 50.0002, -31.2233 60.2279 Q-34.5578 64.5094, -34.4697 71.5059 Q-37.7707 85.0686, -37.9841 93.8167 Q-43.5169 99.6131, -47.2158 107.221 Q-56.5671 103.267, -61.6333 90.6549 Q-56.1627 90.0343, -52.4137 78.7902 Q-54.2261 67.1688, -59.697 64.7114 Q-67.0768 68.2331, -70.806 75.5532 Q-71.1467 78.8655, -74.3542 86.5129 Q-75.2964 96.7163, -78.0669 108 Q-90.7457 102.223, -89.5385 95.7383 Q-90.4979 84.4018, -90.0675 76.6356 Q-86.1494 74.1068, -84.7983 60.5672 Q-82.4169 55.2515, -77.0772 44.9559 Q-74.5395 34.5711, -73.6401 27.6529 Q-72.0383 22.4041, -68.184 17.5816 Q-72.7549 11.9273, -74.8417 6.12599 Q-85.4701 6.34047, -88.56 16.6975 Q-92.4264 25.8952, -93.6082 31.331 Q-98.1319 39.0237, -97.3778 46.3433 Q-102.982 55.1925, -102.875 58.995 Q-105.903 71.9478, -112.935 77.1636 Q-114.026 86.5143, -108.94 94.823 Q-104.825 104.676, -104.23 114.282 Q-97.1439 124.1, -92.159 123.835 Q-90.054 127.455, -90.1596 137.802 Q-95.9395 143.516, -97.827 148.616 Q-90.5249 157.325, -81.6632 157.229 Q-79.1283 148.101, -76.4692 145.079 Q-73.1921 134.177, -67.0047 124.528 Q-60.3502 122, -51.8741 120.063 Q-46.2733 122.557, -38.5879 126.187 Q-34.5287 132.087, -28.2565 133.531 Q-27.6137 138.753, -28.1034 144.481 Q-30.5996 151.913, -31.661 160.047 Q-32.8375 173.424, -38.6491 174.539 Q-46.9464 171.804, -49.3932 165.762 Q-49.3009 156.093, -46.5353 143.448 Q-55.4024 142.521, -65.5718 141.922 Q-65.5382 150.465, -65.5034 157.043 Q-67.7765 167.663, -73.6401 172.153 Q-82.7907 175.509, -90.7089 173.707 Q-101.201 169.194, -105.129 165.002 Q-109.049 159.13, -121.104 157.038 Q-121.472 149.264, -115.016 139.62 Q-115.155 132.797, -119.637 122.712 Q-123.856 113.152, -127.053 106.906 Q-129.771 97.0432, -128.627 89.2409 Q-133.403 81.2077, -135.932 74.7279 Q-142.927 71.0319, -149.923 67.3358 Q-139.187 61.0513, -127.873 58.8662 Q-116.726 57.4677, -114.154 48.1845 Q-120.418 39.7362, -128.065 41.1291 Q-135.713 42.5221, -141.068 44.2616 Q-148.311 45.9481, -156.151 45.2653 Q-155.822 35.3016, -151.219 30.6936 Q-140.355 24.83, -133.689 25.154 Q-126.233 26.1648, -116.769 25.0912 Q-109.493 17.9016, -104.98 9.46033 Q-99.4825 3.85266, -98.5038 0.481819 Q-90.4576 -4.92656, -84.9321 -5.11078 Q-77.5487 -8.16386, -70.8949 -4.4994 Q-62.929 -2.03572, -57.7673 0.756891 Q-53.1528 8.09925, -52.8918 11.3336 Q-54.6171 20.0865, -54.6766 24.3978 Q-55.2013 34.9583, -53.3744 42.4964 Q-52.9234 50.798, -47.6218 45.3099 Q-43.7511 36.5185, -38.5939 29.888 Q-33.4686 21.857, -31.9521 12.2953 Q-36.1991 5.63996, -40.7735 -5.22899 Q-44.0515 -7.98709, -49.3606 -14.6367 Q-54.8891 -20.9031, -62.3972 -18.9794 Q-67.6047 -24.9105, -77.7342 -21.9048 Q-89.8202 -19.1085, -97.4921 -18.3224 Q-103.954 -23.2598, -104.521 -32.1408 Q-102.118 -35.4761, -92.7288 -34.3388 Q-83.36 -36.9855, -75.471 -35.8471 Q-69.5128 -41.5839, -64.0277 -41.4238 Q-59.0573 -41.3698, -48.6899 -38.9523 Q-42.7495 -38.0403, -38.8508 -27.3552 Q-37.4991 -25.0978, -35.3528 -19.5217 Q-26.5509 -14.29, -21.3907 -25.5414 Q-23.8443 -37.6913, -29.8435 -42.0483 Q-31.4767 -48.2204, -32.7286 -55.102 Q-29.5285 -59.228, -30.7179 -69.0656 Q-27.6282 -73.8813, -26.0027 -81.3781 Q-32.3561 -82.3514, -36.5295 -84.9234 Q-44.4833 -74.6429, -43.7877 -69.6257 Q-47.1316 -63.615, -53.4114 -55.9114 Q-55.5674 -60.1265, -65.0882 -54.6096 Q-72.7354 -55.3436, -81.411 -59.7141 Q-89.4573 -54.0962, -93.5958 -52.131 Q-101.637 -55.2515, -110.615 -51.4257 Q-112.191 -47.7638, -120.653 -47.4325 Q-123.818 -43.6761, -121.842 -35.8928 Q-121.224 -28.3043, -121.959 -18.2107 Q-123.028 -15.2925, -125.858 -9.94671 Q-122.555 -3.26726, -119.252 3.41219 Q-127.209 7.2706, -134.154 5.10625 Q-144.894 2.21328, -146.311 -7.80297 Q-155.732 -9.21218, -162.594 -5.81357 Q-162.315 7.81666, -164.135 10.9915 Q-173.102 18.4685, -178.869 27.6011 Q-178.726 35.7394, -185.729 33.2939 Q-192.731 30.8485, -194.979 18.1061 Q-186.483 7.16055, -182.194 -1.31612 Q-177.805 -9.31788, -173.407 -18.7336 Q-172.639 -23.8662, -177.165 -24.9892 Q-189.24 -19.6954, -198.228 -21.4922 Q-195.272 -34.184, -192.407 -40.2759 Q-185.974 -47.1536, -176.967 -48.2051 Q-174.702 -47.0287, -163.446 -40.9385 Q-156.432 -38.0148, -152.752 -33.0059 Q-147.556 -24.8037, -143.765 -22.3049 Q-138.814 -27.6558, -139.355 -39.2748 Q-139.43 -49.8652, -144.384 -50.891 Q-154.829 -56.1956, -164.154 -62.6702 Q-171.915 -69.5903, -172.37 -73.624 Q-165.106 -74.316, -157.841 -75.008 Q-152.065 -75.4625, -144.486 -68.1425 Q-136.968 -71.0058, -130.736 -64.0696 Q-124.044 -64.7578, -114.688 -68.2226 Q-124.34 -78.2493, -130.723 -84.0389 Q-133.253 -87.6698, -142.669 -93.5666 Q-150.375 -95.2974, -153.25 -95.6964 Q-164.224 -92.8925, -175.739 -91.6872 Q-182.628 -84.4891, -193.279 -89.7645 Q-192.718 -97.7638, -188.06 -108.375 Q-179.15 -110.637, -170.894 -112.412 Q-158.533 -115.951, -148.235 -115.843 Q-139.137 -113.189, -131.274 -110.188 Q-124.206 -105.707, -118.118 -99.7608 Q-114.291 -91.737, -104.713 -89.4641 Q-102.831 -80.8468, -104.496 -72.3962 Q-97.7494 -68.5309, -93.3574 -66.2249 Q-90.3842 -74.6432, -87.4109 -83.0615 Q-90.4764 -93.9625, -91.7891 -102.231 Q-100.498 -108.028, -104.512 -109.545 Q-107.012 -117.823, -111.105 -125.374 Q-123.081 -124.96, -128.699 -128.127 Q-135.745 -133.947, -144.999 -137.147 Q-153.149 -142.504, -148.191 -152.109 Q-136.881 -156.227, -129.671 -152.817 Q-122.244 -148.426, -117.346 -145.854 Q-107.332 -144.489, -101.574 -139.613 Q-92.3834 -131.738, -86.8952 -122.742 Q-84.102 -118.37, -80.1855 -110.258 Q-74.9048 -103.789, -73.0356 -97.5845 Q-72.4967 -93.7326, -67.6599 -88.0863 Q-65.4033 -81.5122, -57.5695 -75.0814 Q-57.5305 -81.5672, -53.5546 -92.8717 Q-54.2929 -98.0095, -54.3529 -102.771 Q-59.6426 -111.731, -61.7817 -118.9 Q-68.2827 -127.364, -74.0245 -135.159 Q-79.5805 -139.846, -81.7897 -148.915 Q-90.2465 -154.305, -94.84 -160.009 Q-93.9068 -167.296, -91.8576 -175.313 Q-81.683 -180.761, -76.6277 -174.728 Q-75.1512 -166.97, -67.0109 -161.385 Q-62.4767 -152.945, -55.5501 -144.06 Q-50.903 -140.273, -49.2972 -132.734 Q-47.4312 -121.473, -37.8411 -114.949 Q-32.7938 -106.191, -27.1723 -100.118 Q-19.1031 -95.644, -14.5788 -94.8803 Q-9.02658 -91.7928, -8.11764 -99.8719 Q-7.2087 -107.951, -16.7678 -114.679 Q-22.0937 -120.03, -26.1195 -126.212 Q-30.0597 -133.35, -30.0667 -140.386 Q-29.947 -146.774, -27.0712 -152.933 Q-39.1071 -158.304, -44.5224 -162.666 Q-48.6282 -170.73, -51.303 -173.633 Q-57.9632 -183.958, -57.7303 -188.817 Q-65.0601 -194.663, -72.7384 -195.335 Q-79.1893 -197.897, -74.2436 -210.791 Q-64.1887 -211.629, -53.9217 -209.992 Q-48.1713 -205.363, -42.4629 -197.181 Q-36.6573 -193.484, -33.667 -185.369 Q-25.5526 -174.529, -23.2346 -170.344 Q-19.2172 -164.517, -13.8871 -159.536 Q-10.3466 -150.906, -7.7121 -141.92 Q-5.14349 -136.123, -2.64663 -122.829 Q0.408912 -120.165, 4.27219 -112.804 Q2.28851 -106.806, 5.60555 -102.129 Q8.17687 -97.3214, 6.6478 -88.0845 Q0.0447035 -83.362, -3.78873 -77.396 Q-8.79889 -70.6956, -8.62366 -64.8859 Q-12.0188 -53.8828, -14.1423 -49.2959 Q-9.70082 -41.9038, -9.9647 -36.8686 Q-7.27218 -30.12, -6.06041 -21.5975 Q-5.07455 -14.6257, -9.05017 -13.1147 Q-12.9663 -5.51516, -18.8418 -6.65728 Q-20.6546 3.03129, -11.4304 7.85609 Q-2.7244 6.41283, 2.46013 2.24338 Q4.49695 -2.87779, 8.81713 -11.1709 Q9.04094 -20.2394, 9.28353 -26.3913 Q6.32886 -36.0924, 6.51926 -44.6671 Q5.59651 -55.5802, 9.32837 -62.1184 Q8.81857 -73.2723, 12.943 -75.4361 Q20.0606 -86.9308, 21.9963 -90.147 Q25.0175 -94.5191, 25.2114 -99.2626 Q24.5469 -110.858, 21.4818 -117.629 Q19.9575 -124.802, 16.3267 -132.333 Q12.387 -137.178, 8.27823 -141.987 Q6.3527 -148.324, 3.26706 -153.009 Q-2.26155 -163.298, 2.0323 -169.582 Q-3.88942 -179.811, -7.08068 -185.596 Q-12.6924 -191.595, -16.2265 -200.509 Q-20.9608 -210.061, -24.5031 -215.252 Q-35.0265 -222.013, -39.241 -224.589 Q-32.8421 -236.43, -22.941 -234.469 Q-14.7265 -233.251, -9.36652 -225.845 Q-2.7948 -220.45, 0.0733649 -215.963 Q2.84175 -205.495, 6.78733 -203.187 Q10.2927 -196.724, 13.798 -190.262 Q16.8525 -186.089, 24.3351 -180.354 Q19.4708 -174.804, 14.6066 -169.253 Q14.2956 -166.206, 21.792 -163.668 Q29.2884 -161.13, 28.9253 -164.21 Q33.8357 -171.283, 37.8703 -176.305 Q39.9994 -184.309, 42.8776 -192.052 Q50.3498 -189.978, 54.8593 -184.473 Q59.3688 -178.969, 60.7491 -170.68 Q56.2754 -164.156, 48.0651 -158.72 Q42.6485 -150.286, 36.9778 -143.11 Q34.7154 -138.675, 37.3917 -129.975 Q37.666 -117.568, 40.5623 -110.253 Q46.6196 -101.018, 42.8941 -92.342 Q43.9213 -82.8165, 38.2518 -74.5338 Q32.0265 -71.5142, 30.5014 -63.946 Q22.2964 -56.2846, 21.7628 -51.1275 Q20.3112 -44.6607, 25.6927 -35.9842 Q30.3787 -34.161, 37.3717 -41.4369 Q41.8276 -48.6885, 42.848 -54.9791 Q47.7287 -63.9575, 52.7249 -70.411 Q63.2395 -77.9499, 62.1151 -88.0352 Q62.768 -94.2947, 61.6722 -103.975 Q68.019 -109.074, 78.3016 -109.526 Q78.2768 -116.746, 89.5306 -120.52 Q95.6859 -129.19, 94.0489 -133.886 Q81.8706 -137.923, 75.666 -134.505 Q70.0386 -127.952, 60.8113 -122.236 Q54.9434 -121.05, 47.3048 -131.186 Q48.5693 -135.359, 56.8057 -139.324 Q61.9848 -150.558, 68.298 -151.816 Q74.8949 -162.435, 74.6557 -165.602 Q74.2727 -173.342, 70.8503 -185.051 Q68.1024 -195.031, 61.2784 -196.798 Q60.4215 -205.382, 67.7513 -214.817 Q76.8585 -211.545, 87.8134 -206.528 Q92.6788 -198.389, 91.657 -189.396 Q92.6617 -183.03, 93.7052 -174.187 Q91.3786 -165.992, 94.5683 -159.09 Q96.9556 -153.877, 101.982 -145.669 Q109.304 -144.254, 111.318 -136.346 Q113.935 -130.791, 114.503 -124.692 Q113.619 -115.607, 107.271 -116.963 Q98.6368 -111.391, 98.0342 -107.19 Q90.0165 -102.185, 83.3717 -94.7092 Q80.4191 -86.3546, 80.5428 -79.3446 Q80.9569 -71.2433, 76.1544 -65.0577 Q73.8261 -62.0474, 76.1482 -52.602 Q75.486 -47.8546, 71.7975 -39.5155 Q66.7312 -39.1109, 58.0147 -43.2387 Q55.0233 -46.2672, 46.7163 -38.2153 Q47.8385 -30.5617, 48.3443 -23.4107 Q45.1483 -18.325, 38.7383 -16.0973 Q28.8685 -13.8462, 24.707 -10.3291 Q25.432 -0.0135976, 36.2329 -0.0196228 Q43.5509 0.962256, 50.5805 -2.07486 Q59.2983 -7.43024, 63.9457 -13.5572 Q68.6844 -15.9578, 77.9412 -22.6218 Q85.1085 -30.8465, 92.1646 -35.1833 Q98.8231 -42.7748, 98.218 -47.6511 Q97.4816 -53.449, 96.4937 -59.134 Q95.4016 -69.4324, 100.429 -72.8001 Q102.147 -86.5307, 104.027 -88.6162 Q110.942 -96.1379, 115.263 -96.7127 Q122.781 -99.3781, 125.763 -102.927 Q132.705 -105.922, 136.504 -116.738 Q133.434 -120.237, 133.037 -128.082 Q133.752 -134.134, 133.567 -140.916 Q129.991 -148.435, 126.599 -151.645 Q120.538 -158.101, 112.062 -168.069 Q110.095 -173.24, 106.838 -176.461 Q111.648 -188.051, 121.02 -187.504 Q130.915 -179.413, 138.666 -173.864 Q142.297 -162.787, 147.67 -156.884 Q150.944 -147.28, 152.963 -140.333 Q153.562 -130.493, 153.402 -122.203 Q155.132 -111.506, 151.618 -99.4819 Q153.405 -95.7431, 154.699 -87.4162 Q159.82 -76.5129, 155.119 -68.1293 Q151.153 -59.8448, 145.547 -55.6253 Q135.445 -52.2921, 132.994 -55.6203 Q132.305 -63.1096, 135.686 -71.3111 Q138.047 -78.6486, 136.809 -86.1554 Q129.552 -86.0597, 122.295 -85.9641 Q116.648 -76.8731, 113.686 -72.1463 Q111.371 -62.8403, 111.408 -57.8645 Q116.654 -46.8112, 116.671 -38.6069 Q119.775 -33.2653, 113.48 -28.6134 Q107.185 -23.9615, 103.609 -23.685 Q97.3442 -14.842, 97.2368 -11.3048 Q88.7403 -8.41755, 80.2438 -5.53034 Q76.9075 -4.41841, 71.2598 2.13411 Q67.7301 5.44952, 59.9308 13.3701 Z"/>
</svg>
